<?xml version="1.0" encoding="UTF-8"?>
<svg width="24" height="24" viewBox="0 0 24 24" xmlns="http://www.w3.org/2000/svg" fill="none">
  <g stroke="#111827" stroke-width="1.6" stroke-linecap="round" stroke-linejoin="round">
    <rect x="9.25" y="2.25" width="5.5" height="3.5" rx="0.8"/>
    <path d="M7 9v8.5c0 2 1.6 3.5 3.6 3.75 1.26.15 2.54.15 3.8 0 2-.25 3.6-1.75 3.6-3.75V9c0-1.8-1-3-2.6-3.8M9.5 5.2c-1.6.8-2.5 2-2.5 3.8"/>
    <rect x="7.8" y="11" width="8.4" height="6.8" rx="1.1"/>
    <path d="M9.25 12.7c1.05-.75 3.7-.75 4.9 0m-4.4 2h3.9m-2.7 2h1.8"/>
  </g>
</svg>
