<?xml version="1.0" encoding="UTF-8"?>
<svg width="256" height="256" viewBox="0 0 24 24" xmlns="http://www.w3.org/2000/svg" fill="none">
  <!-- Neutral stroke to look good on light and dark -->
  <g stroke="#94a3b8" stroke-width="1.8" stroke-linecap="round" stroke-linejoin="round">
    <!-- Cap -->
    <rect x="9.25" y="2" width="5.5" height="3.5" rx="0.8"/>
    <!-- Neck -->
    <path d="M10.2 5.5v1.2c0 .5.3 1 .8 1.2l.2.1M13.8 5.5v1.2c0 .5-.3 1-.8 1.2l-.2.1"/>
    <!-- Shoulders + body -->
    <path d="M7.25 9c0-1.6 1-2.3 2.2-2.9m7.3 2.9c0-1.6-1-2.3-2.2-2.9"/>
    <path d="M6.5 9.25v8.5c0 2 1.6 3.75 3.6 4.0 1.26.15 2.54.15 3.8 0 2-.25 3.6-2 3.6-4.0v-8.5c0-1.8-1-3-2.6-3.8"/>
    <!-- Label -->
    <rect x="7.75" y="11" width="8.5" height="7" rx="1.2"/>
    <!-- Label lines -->
    <path d="M9.5 12.75c1.1-.8 3.9-.8 5 0m-4.5 2.0h4m-3.2 2.0h2.4"/>
    <!-- Base accent -->
    <path d="M7.8 21.2c2.2.5 6.2.5 8.4 0"/>
  </g>
</svg>
